<svg id="Layer_1" data-name="Layer 1" xmlns="http://www.w3.org/2000/svg" viewBox="0 0 134.24 24"><defs><style>.cls-1{fill:#221f1f;}</style></defs><path class="cls-1" d="M34.88,12.88h-.32a3.61,3.61,0,0,0-.76-1,4,4,0,0,0-1.3-.77,5.53,5.53,0,0,0-1.94-.3,5.14,5.14,0,0,0-2.63.69,5.07,5.07,0,0,0-1.88,2,6.21,6.21,0,0,0-.69,3v.3a6.35,6.35,0,0,0,.69,3A4.89,4.89,0,0,0,28,21.79a5.18,5.18,0,0,0,2.61.68,4.65,4.65,0,0,0,2.65-.65,4.37,4.37,0,0,0,1.4-1.49h.31v1.82h1.74V1.53H34.88Zm0,3.87a4.18,4.18,0,0,1-1.07,3.05A3.71,3.71,0,0,1,31,20.89a3.75,3.75,0,0,1-2.78-1.09,4.11,4.11,0,0,1-1.09-3.05v-.2a4.11,4.11,0,0,1,1.09-3.05A3.75,3.75,0,0,1,31,12.41a3.71,3.71,0,0,1,2.78,1.09,4.18,4.18,0,0,1,1.07,3.05Z"/><path class="cls-1" d="M47,11.49a6,6,0,0,0-5.59,0,5,5,0,0,0-1.93,2,6.16,6.16,0,0,0-.7,3v.27a6.09,6.09,0,0,0,.7,3,4.92,4.92,0,0,0,2,2,5.94,5.94,0,0,0,2.93.71A5.55,5.55,0,0,0,46.75,22a5,5,0,0,0,1.56-1.17,6.66,6.66,0,0,0,.93-1.4l-1.53-.74a4.33,4.33,0,0,1-1.17,1.55,3.24,3.24,0,0,1-2.18.65,3.85,3.85,0,0,1-2.71-1,3.79,3.79,0,0,1-1.14-2.78h9V16.3a6,6,0,0,0-.68-2.9A4.75,4.75,0,0,0,47,11.49Zm-6.42,4.16a3.83,3.83,0,0,1,1.19-2.39,3.61,3.61,0,0,1,2.48-.85,3.52,3.52,0,0,1,2.44.85,3.32,3.32,0,0,1,1,2.39Z"/><path class="cls-1" d="M58.3,16.38a11.45,11.45,0,0,0-2.1-.55l-.93-.16a4.76,4.76,0,0,1-1.65-.55A1.26,1.26,0,0,1,53,14a1.38,1.38,0,0,1,.65-1.23,3.37,3.37,0,0,1,1.78-.41,3.49,3.49,0,0,1,1.89.48,2.3,2.3,0,0,1,1,1.68L60,14.05a3.91,3.91,0,0,0-1.5-2.38,5,5,0,0,0-3-.84,5.11,5.11,0,0,0-3,.83A2.73,2.73,0,0,0,51.24,14a2.62,2.62,0,0,0,.52,1.65,3.56,3.56,0,0,0,1.4,1,8,8,0,0,0,1.93.56l.93.16A7,7,0,0,1,57.9,18a1.24,1.24,0,0,1,.68,1.2,1.53,1.53,0,0,1-.72,1.33,3.41,3.41,0,0,1-2,.49,4.48,4.48,0,0,1-1.56-.26,2.68,2.68,0,0,1-1.23-.87,3.68,3.68,0,0,1-.67-1.7l-1.69.38a4.05,4.05,0,0,0,1.7,3,6.06,6.06,0,0,0,3.45.95,5.31,5.31,0,0,0,3.23-.88,2.89,2.89,0,0,0,1.21-2.5,2.56,2.56,0,0,0-.55-1.71A3.57,3.57,0,0,0,58.3,16.38Z"/><polygon class="cls-1" points="71.82 11.15 69.34 11.15 64.3 15.67 63.99 15.67 63.99 1.53 62.21 1.53 62.21 22.15 63.99 22.15 63.99 17.36 64.3 17.36 69.55 22.15 72 22.15 65.72 16.5 71.82 11.15"/><path class="cls-1" d="M76.14,11.44a2.07,2.07,0,0,0-.9,1.06h-.31V11.15H73.19v11H75v-6.7a2.67,2.67,0,0,1,.73-2.06,2.73,2.73,0,0,1,1.93-.67h1.42V11.1H77.74A3.25,3.25,0,0,0,76.14,11.44Z"/><path class="cls-1" d="M87.83,11.49a6,6,0,0,0-5.59,0,5,5,0,0,0-1.93,2,6.16,6.16,0,0,0-.7,3v.27a6.09,6.09,0,0,0,.7,3,4.88,4.88,0,0,0,2,2,5.87,5.87,0,0,0,2.92.71A5.55,5.55,0,0,0,87.63,22a5,5,0,0,0,1.56-1.17,6.3,6.3,0,0,0,.93-1.4l-1.53-.74a4.33,4.33,0,0,1-1.17,1.55,3.24,3.24,0,0,1-2.18.65,3.68,3.68,0,0,1-3.85-3.78h9V16.3a6,6,0,0,0-.68-2.9A4.75,4.75,0,0,0,87.83,11.49Zm-6.42,4.16a3.83,3.83,0,0,1,1.19-2.39,3.61,3.61,0,0,1,2.48-.85,3.52,3.52,0,0,1,2.44.85,3.32,3.32,0,0,1,1,2.39Z"/><polygon class="cls-1" points="96.27 20.83 95.95 20.83 92.64 11.15 90.75 11.15 94.69 22.15 97.53 22.15 101.47 11.15 99.58 11.15 96.27 20.83"/><path class="cls-1" d="M103.81,6.71a1.37,1.37,0,0,0-1,.38,1.34,1.34,0,0,0-.39,1,1.3,1.3,0,0,0,.39,1,1.33,1.33,0,0,0,1,.38,1.3,1.3,0,0,0,1-.38,1.33,1.33,0,0,0,.38-1,1.37,1.37,0,0,0-.38-1A1.34,1.34,0,0,0,103.81,6.71Z"/><rect class="cls-1" x="102.91" y="11.15" width="1.78" height="11.01"/><path class="cls-1" d="M115,11.49a5.56,5.56,0,0,0-2.74-.66,5.65,5.65,0,0,0-2.84.71,5,5,0,0,0-1.93,2,6.16,6.16,0,0,0-.7,3v.27a6.09,6.09,0,0,0,.7,3,4.92,4.92,0,0,0,2,2,5.91,5.91,0,0,0,2.93.71,5.58,5.58,0,0,0,2.44-.47,5,5,0,0,0,1.56-1.17,6.66,6.66,0,0,0,.93-1.4l-1.53-.74a4.33,4.33,0,0,1-1.17,1.55,3.24,3.24,0,0,1-2.18.65,3.66,3.66,0,0,1-3.85-3.78h9V16.3a6,6,0,0,0-.68-2.9A4.71,4.71,0,0,0,115,11.49Zm-6.41,4.16a3.83,3.83,0,0,1,1.19-2.39,3.61,3.61,0,0,1,2.48-.85,3.52,3.52,0,0,1,2.44.85,3.32,3.32,0,0,1,1,2.39Z"/><polygon class="cls-1" points="132.44 11.15 130.62 20.96 130.3 20.96 127.9 11.15 124.95 11.15 122.54 20.96 122.22 20.96 120.4 11.15 118.6 11.15 120.81 22.15 123.84 22.15 126.28 12.34 126.57 12.34 129 22.15 132.04 22.15 134.24 11.15 132.44 11.15"/><path class="cls-1" d="M19.87,11a10.14,10.14,0,1,0,0,5.72V24h.43V0h-.43Zm-9.51,3.3,6.51,6.51a9.64,9.64,0,0,1-6.51,2.72Zm.36-.24h9.1a9.63,9.63,0,0,1-2.65,6.44Zm9.1-.43H10.36V4.18A9.7,9.7,0,0,1,19.82,13.63ZM.46,13.86A9.7,9.7,0,0,1,9.93,4.18V23.53A9.69,9.69,0,0,1,.46,13.86Z"/><path class="cls-1" d="M6.21,11.27v2.36a1.25,1.25,0,0,0-.86-.34,1.39,1.39,0,0,0,0,2.77,1.24,1.24,0,0,0,.86-.33V16h.63V11.27Zm-.78,4.21a.8.8,0,1,1,.8-.8A.79.79,0,0,1,5.43,15.48Z"/><path class="cls-1" d="M14.48,11.42V10.06a.77.77,0,0,1,.81-.78,1.3,1.3,0,0,1,.22,0V8.72l-.21,0a1,1,0,0,0-.82.42V8.75h-.63v2.67Z"/></svg>