<svg id="Layer_1" data-name="Layer 1" xmlns="http://www.w3.org/2000/svg" viewBox="0 0 109.24 21"><defs><style>.cls-1{fill:#221f1f;}</style></defs><path class="cls-1" d="M9.88,11.41H9.56A3.62,3.62,0,0,0,7.5,9.67a5.3,5.3,0,0,0-1.94-.31,5.14,5.14,0,0,0-2.63.69,5.07,5.07,0,0,0-1.88,2,6.21,6.21,0,0,0-.69,3v.3a6.35,6.35,0,0,0,.69,3A4.89,4.89,0,0,0,3,20.32,5.18,5.18,0,0,0,5.56,21a4.65,4.65,0,0,0,2.65-.65,4.37,4.37,0,0,0,1.4-1.49h.31v1.82h1.74V.06H9.88Zm0,3.87a4.18,4.18,0,0,1-1.07,3A3.71,3.71,0,0,1,6,19.42a3.75,3.75,0,0,1-2.78-1.09,4.11,4.11,0,0,1-1.09-3v-.2A4.11,4.11,0,0,1,3.25,12,3.75,3.75,0,0,1,6,10.94,3.71,3.71,0,0,1,8.81,12a4.18,4.18,0,0,1,1.07,3.05Z"/><path class="cls-1" d="M22,10a5.52,5.52,0,0,0-2.75-.67,5.65,5.65,0,0,0-2.84.71,5,5,0,0,0-1.93,2,6.16,6.16,0,0,0-.7,3v.27a6.09,6.09,0,0,0,.7,3,4.92,4.92,0,0,0,1.95,2,5.94,5.94,0,0,0,2.93.71,5.55,5.55,0,0,0,2.44-.47,5,5,0,0,0,1.56-1.17,6.66,6.66,0,0,0,.93-1.4l-1.53-.74a4.33,4.33,0,0,1-1.17,1.55,3.24,3.24,0,0,1-2.18.65,3.85,3.85,0,0,1-2.71-1,3.79,3.79,0,0,1-1.14-2.78h9v-.81a6,6,0,0,0-.68-2.9A4.66,4.66,0,0,0,22,10Zm-6.42,4.15a3.83,3.83,0,0,1,1.19-2.39,3.61,3.61,0,0,1,2.48-.85,3.52,3.52,0,0,1,2.44.85,3.32,3.32,0,0,1,1.05,2.39Z"/><path class="cls-1" d="M33.3,14.91a11.45,11.45,0,0,0-2.1-.55l-.93-.16a4.76,4.76,0,0,1-1.65-.55A1.26,1.26,0,0,1,28,12.49a1.38,1.38,0,0,1,.65-1.23,3.37,3.37,0,0,1,1.78-.41,3.49,3.49,0,0,1,1.89.48,2.3,2.3,0,0,1,1,1.68L35,12.58a3.86,3.86,0,0,0-1.5-2.37,5,5,0,0,0-3-.85,5.11,5.11,0,0,0-3,.83,2.73,2.73,0,0,0-1.15,2.32,2.62,2.62,0,0,0,.52,1.65,3.56,3.56,0,0,0,1.4,1,8,8,0,0,0,1.93.56l.93.16a7,7,0,0,1,1.88.58,1.24,1.24,0,0,1,.68,1.2A1.53,1.53,0,0,1,32.86,19a3.41,3.41,0,0,1-2,.49,4.72,4.72,0,0,1-1.56-.25,2.77,2.77,0,0,1-1.23-.88,3.68,3.68,0,0,1-.67-1.7l-1.69.38a4.05,4.05,0,0,0,1.7,3A6.06,6.06,0,0,0,30.9,21a5.31,5.31,0,0,0,3.23-.88,2.89,2.89,0,0,0,1.21-2.5,2.56,2.56,0,0,0-.55-1.71A3.57,3.57,0,0,0,33.3,14.91Z"/><polygon class="cls-1" points="46.82 9.68 44.34 9.68 39.3 14.2 38.99 14.2 38.99 0.06 37.21 0.06 37.21 20.68 38.99 20.68 38.99 15.89 39.3 15.89 44.55 20.68 47 20.68 40.72 15.03 46.82 9.68"/><path class="cls-1" d="M51.14,10a2.07,2.07,0,0,0-.9,1.06h-.31V9.68H48.19v11H50V14a2.67,2.67,0,0,1,.73-2.06,2.73,2.73,0,0,1,1.93-.67h1.42V9.63H52.74A3.25,3.25,0,0,0,51.14,10Z"/><path class="cls-1" d="M62.83,10a5.52,5.52,0,0,0-2.75-.67,5.65,5.65,0,0,0-2.84.71,5,5,0,0,0-1.93,2,6.16,6.16,0,0,0-.7,3v.27a6.09,6.09,0,0,0,.7,3,4.88,4.88,0,0,0,2,2,5.87,5.87,0,0,0,2.92.71,5.55,5.55,0,0,0,2.44-.47,5,5,0,0,0,1.56-1.17,6.3,6.3,0,0,0,.93-1.4l-1.53-.74a4.33,4.33,0,0,1-1.17,1.55,3.24,3.24,0,0,1-2.18.65,3.68,3.68,0,0,1-3.85-3.78h9v-.81a6,6,0,0,0-.68-2.9A4.66,4.66,0,0,0,62.83,10Zm-6.42,4.15a3.83,3.83,0,0,1,1.19-2.39,3.61,3.61,0,0,1,2.48-.85,3.52,3.52,0,0,1,2.44.85,3.32,3.32,0,0,1,1,2.39Z"/><polygon class="cls-1" points="71.27 19.36 70.95 19.36 67.64 9.68 65.75 9.68 69.69 20.68 72.53 20.68 76.47 9.68 74.58 9.68 71.27 19.36"/><path class="cls-1" d="M78.81,5.24a1.37,1.37,0,0,0-1,.38,1.35,1.35,0,0,0-.39,1,1.27,1.27,0,0,0,.39,1,1.33,1.33,0,0,0,1,.39,1.32,1.32,0,0,0,1.35-1.35,1.38,1.38,0,0,0-.38-1A1.34,1.34,0,0,0,78.81,5.24Z"/><rect class="cls-1" x="77.91" y="9.68" width="1.78" height="11.01"/><path class="cls-1" d="M90,10a5.45,5.45,0,0,0-2.74-.67,5.65,5.65,0,0,0-2.84.71,5,5,0,0,0-1.93,2,6.16,6.16,0,0,0-.7,3v.27a6.09,6.09,0,0,0,.7,3,4.92,4.92,0,0,0,2,2,5.91,5.91,0,0,0,2.93.71,5.58,5.58,0,0,0,2.44-.47,5,5,0,0,0,1.56-1.17,6.66,6.66,0,0,0,.93-1.4l-1.53-.74a4.33,4.33,0,0,1-1.17,1.55,3.24,3.24,0,0,1-2.18.65,3.66,3.66,0,0,1-3.85-3.78h9v-.81a6,6,0,0,0-.68-2.9A4.63,4.63,0,0,0,90,10Zm-6.41,4.15a3.83,3.83,0,0,1,1.19-2.39,3.61,3.61,0,0,1,2.48-.85,3.52,3.52,0,0,1,2.44.85,3.32,3.32,0,0,1,1,2.39Z"/><polygon class="cls-1" points="107.44 9.68 105.62 19.49 105.3 19.49 102.9 9.68 99.95 9.68 97.54 19.49 97.22 19.49 95.4 9.68 93.6 9.68 95.81 20.68 98.84 20.68 101.28 10.87 101.57 10.87 104 20.68 107.04 20.68 109.24 9.68 107.44 9.68"/></svg>