<svg id="Layer_1" data-name="Layer 1" xmlns="http://www.w3.org/2000/svg" viewBox="0 0 27.07 32"><defs><style>.cls-1{fill:#fff;}.cls-2{fill:#221f1f;}</style></defs><rect class="cls-1" x="-0.47" width="32" height="32"/><path class="cls-2" d="M26.49,14.66a13.52,13.52,0,1,0,0,7.64V32h.58V0h-.58ZM13.81,19.07l8.68,8.68a12.87,12.87,0,0,1-8.68,3.63Zm.49-.33H26.42a12.78,12.78,0,0,1-3.53,8.6Zm12.12-.57H13.81V5.58A12.91,12.91,0,0,1,26.42,18.17Zm-25.8.31A12.91,12.91,0,0,1,13.23,5.58v25.8A12.91,12.91,0,0,1,.62,18.48Z"/><path class="cls-2" d="M8.38,15.22v3.19A1.68,1.68,0,0,0,7.22,18a1.87,1.87,0,0,0,0,3.74,1.68,1.68,0,0,0,1.16-.45v.38h.86V15.22ZM7.33,20.91a1.08,1.08,0,1,1,1.08-1.08A1.08,1.08,0,0,1,7.33,20.91Z"/><path class="cls-2" d="M19.56,15.42V13.59a1,1,0,0,1,1.09-1.05,1.36,1.36,0,0,1,.3,0v-.8a1.36,1.36,0,0,0-1.39.54v-.5H18.7v3.6Z"/></svg>